<svg xmlns="http://www.w3.org/2000/svg" xmlns:xlink="http://www.w3.org/1999/xlink" width="375" height="812" viewBox="0 0 375 812">
  <defs>
    <filter id="FONTS" x="112.022" y="353.533" width="158.955" height="112.935" filterUnits="userSpaceOnUse">
      <feOffset dx="4" dy="4" input="SourceAlpha"/>
      <feGaussianBlur stdDeviation="3" result="blur"/>
      <feFlood flood-color="#fff" flood-opacity="0.161"/>
      <feComposite operator="in" in2="blur"/>
      <feComposite in="SourceGraphic"/>
    </filter>
    <filter id="Montserrat" x="-5" y="-5" width="286.468" height="240.129" filterUnits="userSpaceOnUse">
      <feOffset dx="4" dy="4" input="SourceAlpha"/>
      <feGaussianBlur stdDeviation="3" result="blur-2"/>
      <feFlood flood-color="#fff" flood-opacity="0.161"/>
      <feComposite operator="in" in2="blur-2"/>
      <feComposite in="SourceGraphic"/>
    </filter>
    <filter id="Nantua" x="111.38" y="659.396" width="171.125" height="150.92" filterUnits="userSpaceOnUse">
      <feOffset dx="4" dy="4" input="SourceAlpha"/>
      <feGaussianBlur stdDeviation="3" result="blur-3"/>
      <feFlood flood-color="#fff" flood-opacity="0.161"/>
      <feComposite operator="in" in2="blur-3"/>
      <feComposite in="SourceGraphic"/>
    </filter>
    <clipPath id="clip-R1_2">
      <rect width="375" height="812"/>
    </clipPath>
  </defs>
  <g id="R1_2" data-name="R1 – 2" clip-path="url(#clip-R1_2)">
    <rect width="375" height="812" fill="#fff8f8"/>
    <line id="Line_6" data-name="Line 6" x2="491" y2="167" transform="translate(-37.5 252.5)" fill="none" stroke="#000" stroke-width="20"/>
    <line id="Line_7" data-name="Line 7" x2="504" y2="194.066" transform="translate(-44.5 392.5)" fill="none" stroke="#000" stroke-width="20"/>
    <line id="Line_8" data-name="Line 8" x1="375" y2="257" transform="translate(0.5 555.5)" fill="none" stroke="#000" stroke-width="15"/>
    <line id="Line_9" data-name="Line 9" x1="390.594" y2="267.687" transform="translate(-30.5 -15.187)" fill="none" stroke="#000" stroke-width="15"/>
    <path id="Polygon_1" data-name="Polygon 1" d="M372.5,0,745,257H0Z" transform="translate(1 555)"/>
    <path id="Polygon_2" data-name="Polygon 2" d="M447.279,294.967,869.865,0,0,45.588Z" transform="translate(-465.775 -22.776)" fill="#c34040"/>
    <g transform="matrix(1, 0, 0, 1, 0, 0)" filter="url(#FONTS)">
      <path id="FONTS-2" data-name="FONTS" d="M21.876,15.111l4.36-2.453L40.072,17.5,38.69,21.1,30.8,18.314,26.393,29.8l5.965,2.16L31,35.5l-5.959-2.175-6.526,17L9.649,46.963Zm31.54,11.176-2.388-.842L39.953,54.3l2.369.891ZM31.38,51.071,43.771,18.789l16.6,5.805,1.82,4.788L49.627,62.126,33.112,55.862ZM63.635,67.439l-8.878-3.367L68.783,27.533,86,33.551l1.913,4.9-12.8,33.344L66.088,68.37,78.806,35.238l-2.475-.873Zm49.957-20-6.478-2.283L94.123,79l-9.266-3.514L97.765,41.863l-6.338-2.234,1.415-3.685L115.029,43.7Zm20.672,23.49L126.575,52.02l-2.706,1.4,8.809,21.647L127.941,87.4,122.9,89.919,108.081,84.3l-2.006-5.12L111,66.333l6.849,17.276,2.638-1.328-7.945-19.965L117.7,48.891l4.893-2.546,15.02,5.251,2.108,5.118Z" transform="translate(112.02 353.53)" fill="#c34040"/>
    </g>
    <g transform="matrix(1, 0, 0, 1, 0, 0)" filter="url(#Montserrat)">
      <path id="Montserrat-2" data-name="Montserrat" d="M41.067,166.532l20.749,29.633-2.477,1.749L42.776,174.259l4.458,26.632-1.195.849-22.9-12.813,16.188,23.119-2.382,1.682-20.3-28.994,2.009-1.5,25.338,14.189-5.013-29.337Zm36.96,18.506q-2.726,1.924-5.937,1.988t-6.259-1.657q-3.053-1.716-5.349-4.994t-2.887-6.768q-.593-3.5.534-6.52t3.82-5.012q2.7-1.987,5.9-2.123t6.3,1.592q3.095,1.732,5.428,5.064t2.926,6.867q.592,3.528-.579,6.584T78.027,185.039Zm-1.893-2.7q2.013-1.428,2.85-3.665t.323-4.915q-.516-2.677-2.33-5.267t-4.135-3.966q-2.318-1.373-4.681-1.308t-4.349,1.523q-1.985,1.454-2.794,3.7t-.3,4.9q.506,2.658,2.3,5.218t4.1,3.92q2.31,1.362,4.658,1.326T76.134,182.334ZM87.5,143.278q3.679-2.706,7.639-1.778t7.377,5.791l9.434,13.473-2.7,1.9-9.2-13.134q-2.531-3.614-5.393-4.389t-5.679,1.295q-3.143,2.3-3.422,5.841T88,159.689l8.427,12.035L93.8,173.58,77.775,150.7l2.483-1.826,2.961,4.229q-.4-2.872.68-5.417T87.5,143.278Zm42.59,2.529q-.219,1.363-1.078,2.606t-2.106,2.123q-2.881,2.033-5.68,1.346t-5.067-3.934L106.25,133.8l-3.577,2.619-1.864-2.662,3.572-2.627-3.583-5.117,2.7-2.006,3.591,5.129,6.157-4.528,1.883,2.69-6.167,4.514,9.806,14q1.468,2.1,3.144,2.542t3.391-.769q.858-.609,1.439-1.49t.761-1.882Zm12.867-6.6q-2.558,1.806-5.472,2.615t-5.089.469l-.5-3.419q2.125.243,4.628-.421t4.668-2.2q2.887-2.048,3.559-4.056t-.634-3.879Q143.19,127,141.9,126.8t-2.721.245q-1.43.447-3.6,1.46-2.923,1.286-4.862,1.832t-3.964-.026q-2.026-.57-3.7-2.956-2.081-2.971-1.253-6.44t4.693-6.322q2.02-1.486,4.476-2.363t4.487-.846l.577,3.506q-4.03-.15-7.6,2.467-2.687,1.967-3.286,4.046t.634,3.834q.948,1.354,2.285,1.609t2.755-.19q1.419-.446,3.731-1.5,2.9-1.27,4.8-1.822t3.921-.014q2.016.54,3.645,2.867,2.2,3.148,1.169,6.646T142.956,139.205Zm26.188-35.6-18.23,13.116q2.88,3.587,6.844,4.238t7.586-1.906q2.041-1.448,3.186-3.474t1.3-4.506l3.179.941q-.106,3-1.6,5.58t-4.115,4.429q-3.365,2.375-7.059,2.613-3.68.237-7.071-1.542t-5.852-5.3q-2.468-3.525-3.066-7.307t.685-7.094q1.289-3.317,4.277-5.515t6.5-2.394q3.513-.187,6.858,1.621t5.9,5.444Zm-17.959-2.909q-3.115,2.281-3.656,6.05t1.682,7.543l15.4-11.124q-2.829-3.412-6.547-4.1T151.185,100.694Zm22.106-12.921q-.68-3.266.54-6.081t4.352-5.126l2.283,3.26-.764.488q-3.558,2.6-3.886,6.47t2.7,8.172l8.809,12.58-3.045,2.15L167.029,85.055l2.877-2.116Zm18.025-13.152q-.674-3.324.593-6.2t4.49-5.256l2.316,3.307-.786.5q-3.661,2.679-4.022,6.622t2.707,8.31l8.934,12.76-3.133,2.212L184.924,71.894l2.959-2.176Zm20.111-22.512q4.677-3.441,8.946-2.777,4.286.666,7.74,5.6l11.15,15.924-3.158,2.23-2.8-4q.289,2.784-1.073,5.422t-4.293,4.7q-4.015,2.834-7.793,2.477t-6.089-3.675Q211.8,74.792,212.6,71.25t5.6-7.022l7.633-5.516-1.092-1.559q-2.32-3.313-5.27-3.774t-6.257,1.968q-2.261,1.655-3.776,3.97T207.428,64.1L204.209,62.6q.642-2.948,2.527-5.683T211.427,52.109Zm15.118,24.036q2.75-1.949,3.791-4.688t.24-5.971l-2.934-4.191L220.09,66.73q-3.061,2.2-3.8,4.434t.854,4.5q1.553,2.218,4.035,2.369T226.545,76.145ZM261.6,52.7q-.337,1.576-1.425,3.05t-2.619,2.553q-3.531,2.492-6.813,1.862t-5.79-4.224l-10.965-15.66-4.38,3.206-2.062-2.945,4.373-3.216-3.965-5.663,3.312-2.458,3.975,5.677,7.548-5.551,2.086,2.979-7.56,5.535,10.854,15.5q1.625,2.32,3.588,2.737t4.066-1.072q1.052-.746,1.791-1.79t1.008-2.2Z" transform="translate(-5 -5)" fill="#fff"/>
    </g>
    <g transform="matrix(1, 0, 0, 1, 0, 0)" filter="url(#Nantua)">
      <path id="Nantua-2" data-name="Nantua" d="M39.285,125.232l-7.167,5.061L10.535,99.469l13.5-10.076L28.86,90.58l19.685,28.113-7.28,5.141L21.7,95.893l-1.947,1.445ZM47.413,79.3l3.924.937L68.429,104.65l-6.993,4.938L49.726,92.865l-.369,3.925,9.994,14.272-6.889,4.865L39.888,97.97l.562-6.247,8.08-5.929-1.177-1.68-8.072,5.941L37.1,86.936Zm6.139-4.543,13.482-9.977,5.016,1.153L88.99,90.131l-7.232,5.107L64.917,71.186,62.79,72.752,79.6,96.761l-7.122,5.03ZM73.929,59.681l5.184-3.836,5.094,1.144,4.456-3.279L90.969,57l-4.464,3.268L99.019,78.143l6.265-4.449,2.31,3.3-11.527,8.14L90.9,83.912ZM91.151,46.936l7.461-5.521,17.312,24.724,2.292-1.627L100.873,39.742l7.58-5.609L125.9,59.053l-.692,5.5L113.646,72.72l-5.287-1.209Zm37.157-27.5,4.349.885L150.916,46.4l-7.977,5.633-12.5-17.858-.544,4.3,10.67,15.238-7.85,5.543L119.291,40.092l.834-6.839,9.211-6.76L128.08,24.7l-9.2,6.773-2.331-3.329Z" transform="translate(111.38 659.4)" fill="#fff"/>
    </g>
  </g>
</svg>
