<svg xmlns="http://www.w3.org/2000/svg" xmlns:xlink="http://www.w3.org/1999/xlink" width="375" height="812" viewBox="0 0 375 812">
  <defs>
    <filter id="COLOR_PALETTE" x="22.303" y="320.592" width="338.394" height="178.816" filterUnits="userSpaceOnUse">
      <feOffset dx="4" dy="4" input="SourceAlpha"/>
      <feGaussianBlur stdDeviation="3" result="blur"/>
      <feFlood flood-color="#fff" flood-opacity="0.161"/>
      <feComposite operator="in" in2="blur"/>
      <feComposite in="SourceGraphic"/>
    </filter>
    <filter id="_C34040" x="3.326" y="58.381" width="197.173" height="169.84" filterUnits="userSpaceOnUse">
      <feOffset dx="4" dy="4" input="SourceAlpha"/>
      <feGaussianBlur stdDeviation="3" result="blur-2"/>
      <feFlood flood-color="#fff" flood-opacity="0.161"/>
      <feComposite operator="in" in2="blur-2"/>
      <feComposite in="SourceGraphic"/>
    </filter>
    <filter id="_000000_" x="110.289" y="627.241" width="231.791" height="210.335" filterUnits="userSpaceOnUse">
      <feOffset dx="4" dy="4" input="SourceAlpha"/>
      <feGaussianBlur stdDeviation="3" result="blur-3"/>
      <feFlood flood-color="#fff" flood-opacity="0.161"/>
      <feComposite operator="in" in2="blur-3"/>
      <feComposite in="SourceGraphic"/>
    </filter>
    <filter id="_FFF8F8" x="182.5" y="256.211" width="199.167" height="127.67" filterUnits="userSpaceOnUse">
      <feOffset dx="4" dy="4" input="SourceAlpha"/>
      <feGaussianBlur stdDeviation="3" result="blur-4"/>
      <feFlood flood-color="#fff" flood-opacity="0.161"/>
      <feComposite operator="in" in2="blur-4"/>
      <feComposite in="SourceGraphic"/>
    </filter>
    <clipPath id="clip-R1_1">
      <rect width="375" height="812"/>
    </clipPath>
  </defs>
  <g id="R1_1" data-name="R1 – 1" clip-path="url(#clip-R1_1)">
    <rect width="375" height="812" fill="#fff8f8"/>
    <line id="Line_6" data-name="Line 6" x2="491" y2="167" transform="translate(-37.5 252.5)" fill="none" stroke="#000" stroke-width="20"/>
    <line id="Line_7" data-name="Line 7" x2="504" y2="194.066" transform="translate(-44.5 392.5)" fill="none" stroke="#000" stroke-width="20"/>
    <line id="Line_8" data-name="Line 8" x1="375" y2="257" transform="translate(0.5 555.5)" fill="none" stroke="#000" stroke-width="15"/>
    <line id="Line_9" data-name="Line 9" x1="390.594" y2="267.687" transform="translate(-30.5 -15.187)" fill="none" stroke="#000" stroke-width="15"/>
    <path id="Polygon_1" data-name="Polygon 1" d="M372.5,0,745,257H0Z" transform="translate(1 555)"/>
    <path id="Polygon_2" data-name="Polygon 2" d="M447.279,294.967,869.865,0,0,45.588Z" transform="translate(-465.775 -22.776)" fill="#c34040"/>
    <g transform="matrix(1, 0, 0, 1, 0, 0)" filter="url(#COLOR_PALETTE)">
      <path id="COLOR_PALETTE-2" data-name="COLOR PALETTE" d="M36.844,16.354l-1.3,3.393-6.824-2.406L18.424,44.158l7.3,2.749-1.3,3.395L9.353,44.584,20.89,14.529l3.953-2.37Zm11.933,8.06-2.12-.747L36.22,50.854l2.1.791ZM28.6,47.989,40.286,17.557l14.746,5.155,1.538,4.449L44.731,58,30.069,52.442ZM62.089,25.18l7.944,2.777L58.086,59.082l7.927,2.983-1.344,3.5-12.921-4.9-1.536-4.545Zm28.1,13.836-2.256-.8L77.173,66.264l2.238.842Zm-21.122,24.2L81.118,31.832l15.688,5.485,1.68,4.622L86.272,73.759l-15.6-5.917Zm41.62-14.878-3.714,9.676,2.327.843,2.685-6.995Zm9.864-2.718,1.783,4.672-3.744,9.753-4.528,2.479,1.749,4.76-5.925,15.434-8.508-3.227L107.942,62.4l-2.325-.849L99.07,78.613l-8.375-3.177,13.625-35.493ZM157.8,58.639l-9.649,25.135-4.707,2.484-5.665-2.112,9.587-24.976-2.45-.864-12.63,32.9L123.5,87.878l13.954-36.352Zm8,20.673,2.531.917,3.88-10.109-3.616,1.91Zm-4.556-15.307,4.71-2.515,14.4,5.036,1.954,4.907L169.326,105.26l-9.257-3.511,6.841-17.821-2.529-.923-6.829,17.789-9.106-3.454Zm27.531,5.463,9.538,3.335-13.1,34.115,9.529,3.585-1.474,3.839-15.526-5.889-1.983-5.093Zm30.441,25.378,3.518-9.165-2.718-.958-4.792,12.484,10.49,3.8-1.477,3.848-10.48-3.826-5.577,14.529,2.7,1.015,4.242-11.052,9.949,3.659L219.3,124.213l-18.8-7.131-2.069-5.194,11.758-30.63,4.989-2.561,19.041,6.657-5.021,13.08Zm41.209,4.122L253.3,96.458l-13.622,35.487-10.184-3.863,13.53-35.246-6.962-2.454,1.482-3.862,24.385,8.525ZM289.158,109.1l-7.393-2.606-13.877,36.152-10.568-4.008,13.782-35.9-7.223-2.546,1.51-3.933,25.3,8.847Zm14.43,16.083,3.718-9.686-3.035-1.07-5.064,13.193,11.719,4.243-1.561,4.068-11.707-4.274-5.894,15.353,3.011,1.133,4.483-11.68,11.117,4.088-6.1,15.894-21-7.965-2.4-5.567,12.42-32.356,5.481-2.631,21.267,7.435-5.308,13.828Z" transform="translate(22.3 320.59)" fill="#c34040"/>
    </g>
    <g transform="matrix(1, 0, 0, 1, 0, 0)" filter="url(#_C34040)">
      <path id="_C34040-2" data-name="#C34040" d="M28.482,130.01l1.711,2.444,2.1-1.519-1.714-2.448Zm-5.458-1.459-3.593-5.131,2.927-2.155,3.6,5.144,2.1-1.53-3.609-5.154,2.989-2.2,3.618,5.167,4.274-3.118,2.542,3.63-4.283,3.1,1.719,2.454,4.29-3.1,2.512,3.587-4.3,3.083,3.648,5.21L38.432,139.7l-3.639-5.2-2.109,1.512,3.632,5.187-2.963,2.1-3.623-5.174-4.244,3.043-2.476-3.536,4.235-3.056-1.707-2.437-4.228,3.065-2.506-3.579ZM44.231,93.587l2.212,3.16L39.9,101.6l17.478,24.961,7.164-5.087,2.213,3.161L51.939,135.1,32.356,107.134l.406-4.99Zm22.9-9.686L65.9,96.8l12.079,2.912,5.716,8.163-.54,5.181-13.566,9.58-8.258-11.794L74.8,114.188l.333-2.958-16.368-4.037L60,93.948l-6.934,5.1-2.188-3.124ZM86.439,69.614,97.612,85.571l1.875-1.351,5.818,8.309-1.884,1.338,2.285,3.264-7.294,5.151L96.14,99.037,86.8,105.671,77.185,91.942l1.349-13.4L89.779,94.6l.429-4.031L79.258,74.928Zm30.333,14.772,2.212-1.571-14.914-21.3-2.186,1.609Zm9.729-1.939-15.478,10.93-17.087-24.4.57-5.329,15.349-11.358,17.309,24.72Zm5.305-46.4L143.4,52.595l2.018-1.453,6.035,8.619-2.027,1.44,2.371,3.386-7.847,5.542-2.356-3.365L131.544,73.9l-9.967-14.235,1.67-14.1,11.661,16.654.527-4.24L124.081,41.759Zm31.988,14.952,2.383-1.692L150.7,27.2l-2.354,1.733Zm10.388-2.219L157.513,60.546,139.785,35.228l.7-5.611,16.532-12.234,17.968,25.661Z" transform="translate(3.33 58.38)" fill="#fff"/>
    </g>
    <g transform="matrix(1, 0, 0, 1, 0, 0)" filter="url(#_000000_)">
      <path id="_000000_2" data-name="#000000
" d="M28.632,134.139l1.708,2.439,2.1-1.512-1.711-2.443Zm-5.441-1.46-3.586-5.121,2.915-2.147,3.595,5.134,2.088-1.523-3.6-5.143,2.976-2.192,3.611,5.156,4.256-3.105,2.537,3.623-4.266,3.092,1.715,2.449,4.272-3.083,2.507,3.58-4.281,3.07,3.641,5.2-3.013,2.14-3.631-5.186-2.1,1.506,3.625,5.177L33.5,147.4l-3.616-5.164-4.227,3.031-2.471-3.529L27.4,138.7l-1.7-2.432-4.211,3.053-2.5-3.571Zm33.9-1.714,2-1.418L44.924,109.312l-1.973,1.452Zm8.889-1.593-13.972,9.867L35.773,116.046l.408-4.966L50.033,100.83l16.438,23.476ZM77.943,116.16l2.068-1.468L65.593,94.1,63.55,95.6Zm9.167-1.706L72.642,124.671l-16.524-23.6.46-5.086L70.924,85.37l16.73,23.893Zm12.429-13.63,2.143-1.522L87,78.34,84.887,79.9ZM109,99,94.006,109.584,77.188,85.565l.517-5.213,14.865-11L109.6,93.677Zm12.926-14.069,2.222-1.578L109.2,62,107,63.621Zm9.765-1.955L116.145,93.95,99.022,69.5l.577-5.345,15.414-11.407,17.346,24.773ZM145.14,68.441l2.305-1.637L132.221,45.061l-2.278,1.676Zm10.089-2.091L139.1,77.738,121.662,52.832l.641-5.483L138.3,35.513,155.97,60.75Zm14.008-15.021,2.393-1.7L156.117,27.473l-2.365,1.74Zm10.43-2.237L162.923,60.916,145.155,35.541l.71-5.628,16.608-12.29,18.009,25.72Z" transform="translate(110.29 627.24)" fill="#fff"/>
    </g>
    <g transform="matrix(1, 0, 0, 1, 0, 0)" filter="url(#_FFF8F8)">
      <path id="_FFF8F8-2" data-name="#FFF8F8" d="M24.131,32.937l-1.073,2.794,2.452.9,1.075-2.8Zm-1.861-5.363,2.252-5.868,3.447,1.23-2.258,5.883,2.457.889,2.262-5.893,3.519,1.256-2.268,5.909,5.009,1.812L35.1,36.942l-5-1.827-1.077,2.807,5,1.837-1.575,4.1-4.993-1.853-2.287,5.958-3.5-1.315,2.281-5.943L21.5,39.8,19.22,45.732l-3.425-1.288,2.271-5.917L13.137,36.7l1.552-4.044,4.935,1.814,1.07-2.787-4.939-1.8,1.571-4.092Zm23.115-4.231,4.39-2.458,13.95,4.877-1.387,3.614-7.955-2.8L49.958,38.1l6.014,2.178-1.366,3.559L48.6,41.645,42.045,58.714,33.11,55.325Zm20.259,7.141,4.5-2.479L84.514,33.03,83.106,36.7l-8.194-2.889L70.42,45.51l6.2,2.243-1.387,3.612L69.04,49.107,62.39,66.43l-9.2-3.491Zm20.867,7.356,4.616-2.5,14.808,5.177-1.43,3.724-8.445-2.977L91.5,53.144l6.385,2.312-1.408,3.667L90.1,56.794,83.349,74.38l-9.483-3.6Zm31.122,17.441-2.552-.911-3.746,9.759,2.546.929ZM112.215,69.4l-2.543-.936-3.886,10.124,2.536.954ZM95.177,78.866l10.669-27.793,4.731-2.507L128.457,54.9,117.65,83.05l-4.874,2.492Zm39.109-24.184,4.885-2.544,15.836,5.536-1.479,3.852L144.5,58.342l-4.715,12.283L146.61,73.1l-1.456,3.793-6.822-2.49-6.981,18.186-10.139-3.846ZM167.657,73.14l-2.733-.976-3.876,10.1,2.725.994ZM162.05,87.746l-2.722-1-4.021,10.475,2.715,1.022ZM144,97.386l11.036-28.75,5.013-2.551L179.2,72.863,168.011,102l-5.168,2.532Z" transform="translate(182.5 256.21)" fill="#605656"/>
    </g>
  </g>
</svg>
