<svg xmlns="http://www.w3.org/2000/svg" xmlns:xlink="http://www.w3.org/1999/xlink" width="375" height="812" viewBox="0 0 375 812">
  <defs>
    <filter id="RUSSIAN_CONSTRUCTIVISM" x="17.439" y="305.552" width="388.542" height="236.099" filterUnits="userSpaceOnUse">
      <feOffset dx="4" dy="4" input="SourceAlpha"/>
      <feGaussianBlur stdDeviation="3" result="blur"/>
      <feFlood flood-color="#fff" flood-opacity="0.161"/>
      <feComposite operator="in" in2="blur"/>
      <feComposite in="SourceGraphic"/>
    </filter>
    <clipPath id="clip-R1">
      <rect width="375" height="812"/>
    </clipPath>
  </defs>
  <g id="R1" clip-path="url(#clip-R1)">
    <rect width="375" height="812" fill="#fff8f8"/>
    <line id="Line_6" data-name="Line 6" x2="491" y2="167" transform="translate(-37.5 252.5)" fill="none" stroke="#000" stroke-width="20"/>
    <line id="Line_7" data-name="Line 7" x2="504" y2="194.066" transform="translate(-44.5 392.5)" fill="none" stroke="#000" stroke-width="20"/>
    <line id="Line_8" data-name="Line 8" x1="375" y2="257" transform="translate(0.5 555.5)" fill="none" stroke="#000" stroke-width="15"/>
    <line id="Line_9" data-name="Line 9" x1="390.594" y2="267.687" transform="translate(-30.5 -15.187)" fill="none" stroke="#000" stroke-width="15"/>
    <path id="Polygon_1" data-name="Polygon 1" d="M372.5,0,745,257H0Z" transform="translate(1 555)"/>
    <path id="Polygon_2" data-name="Polygon 2" d="M446.3,287.377,868.6,0,0,45.521Z" transform="translate(-464.799 -21.384)"/>
    <text id="_approx._1913_to_1935" data-name="(approx.) 1913 to 1935" transform="matrix(0.829, -0.559, 0.559, 0.829, 213.372, 649.643)" fill="#c34040" font-size="30" font-family="Nantua-Roman, Nantua" letter-spacing="0.04em"><tspan x="-145.32" y="0">(approx.) 1913 to 1935</tspan></text>
    <g transform="matrix(1, 0, 0, 1, 0, 0)" filter="url(#RUSSIAN_CONSTRUCTIVISM)">
      <path id="RUSSIAN_CONSTRUCTIVISM-2" data-name="RUSSIAN 
CONSTRUCTIVISM" d="M108.757,41.274l-3.469,9.53,2.242.768,2.507-6.889Zm9.439-2.882,1.757,4.517-3.5,9.6-4.32,2.525,1.725,4.6-5.532,15.2-8.2-2.947,6.125-16.829-2.24-.774L97.9,71.093l-8.072-2.9,12.725-34.962Zm7.488,2.472,8.432,2.784L122.4,75.83l2.31.823,11.733-32.237,8.565,2.828L133.2,79.681l-4.433,2.508-12.99-4.669-1.739-4.669Zm37.658,31.782-6.976-17.611-2.454,1.4,7.994,20.155-4.291,11.79-4.567,2.532L139.6,86.08l-1.824-4.77,4.47-12.28,6.223,16.091,2.392-1.336-7.217-18.6,4.672-12.836,4.44-2.553,13.623,4.5,1.911,4.765Zm25.394,8.732-7.319-18-2.529,1.417,8.386,20.6-4.368,12L178.2,99.955l-13.936-5.009-1.913-4.875,4.549-12.5,6.528,16.447,2.466-1.349L168.32,73.663,173.075,60.6l4.575-2.58,14.115,4.66,2.005,4.871Zm11.348-15.952,9.374,3.095-13.734,37.734-9.286-3.338ZM218.2,89.472l2.633.9L224.6,80.029l-3.686,1.991Zm-5.059-15.531,4.8-2.622,14.979,4.945,2.132,4.973-12.6,34.623-9.632-3.462,6.638-18.238-2.63-.908-6.626,18.2-9.473-3.4Zm24.324,47.316-9.83-3.533,14.038-38.57,19.055,6.291L263,90.606l-12.82,35.222-10-3.594,12.734-34.987-2.741-.913ZM35.859,56.145l-1.23,3.38-6.647-2.447L18.26,83.79l7.118,2.791-1.231,3.381-14.689-5.8,10.9-29.941,3.813-2.341ZM47.52,64.271l-2.065-.76L35.6,90.59l2.049.8ZM28.18,87.68,39.212,57.37l14.36,5.244,1.537,4.452L43.929,97.78,29.645,92.136Zm27.455,14.726-7.66-3.027L60.443,65.123l14.841,5.42,1.61,4.543L65.527,106.316l-7.777-3.073L69.05,72.2l-2.134-.786Zm39.03-5.956L88.508,79.307l-2.281,1.321,7.056,19.62-4.129,11.343-4.243,2.385-12.317-4.867-1.609-4.642,4.3-11.821,5.49,15.662L83,107.048l-6.368-18.1,4.5-12.356,4.128-2.406,12.476,4.556,1.687,4.639Zm27.184-4.869-5.757-2.119-11.721,32.2-8.243-3.257L107.777,86.4l-5.639-2.076,1.277-3.509,19.729,7.2ZM132.9,97.828l-3.571,9.811,2.349.888,2.581-7.092Zm9.856-2.646,1.865,4.781-3.6,9.889-4.5,2.469,1.832,4.872-5.7,15.649-8.591-3.395,6.306-17.325-2.347-.894-6.295,17.3-8.455-3.341,13.1-35.985Zm7.85,2.867,8.842,3.229L147.38,134.425l2.422.95,12.085-33.2,8.986,3.282-12.163,33.416-4.626,2.445-13.624-5.384-1.848-4.942Zm43.128,15.75-1.382,3.8-8.38-3.085-10.913,29.984,8.974,3.519-1.382,3.8L162.142,144.5l12.223-33.583,4.635-2.5Zm23.494,12.894-6.586-2.425L198.1,158.709l-9.423-3.724,12.453-34.216-6.442-2.372,1.365-3.75,22.554,8.237Zm5.074-2.461,9.777,3.57-14.107,38.757-9.683-3.827Zm15.041,5.493,9.979,3.644L234.5,168.588l2.735,1.073,12.843-35.285,10.151,3.707L247.3,173.607l-5.136,2.513-18.98-7.5ZM265.7,140.08l10.365,3.785-14.526,39.911-10.266-4.057Zm33.264,33.847-9-20.456-2.9,1.419L297.367,178.3l-4.758,13.072L287.2,193.92l-16.323-6.451-2.349-5.536,4.948-13.595,8.018,18.68,2.829-1.344-9.3-21.588,5.172-14.21,5.244-2.585,16.534,6.038,2.466,5.537Zm25.321-7.757-3.042-1.12-13.466,37-10.9-4.309,14.867-40.847,35.586,13,2.658,5.743-13.713,37.677-11.306-4.468,13.615-37.408-3.1-1.14L321.89,207.628l-11.1-4.387Z" transform="translate(17.44 305.55)" fill="#c34040"/>
    </g>
  </g>
</svg>
