<svg xmlns="http://www.w3.org/2000/svg" xmlns:xlink="http://www.w3.org/1999/xlink" width="1920" height="1080" viewBox="0 0 1920 1080">
  <defs>
    <linearGradient id="linear-gradient" x1="0.5" x2="0.5" y2="1" gradientUnits="objectBoundingBox">
      <stop offset="0" stop-color="#008081"/>
      <stop offset="1" stop-color="#fff" stop-opacity="0"/>
    </linearGradient>
    <filter id="START_BUTTON" x="671.5" y="420" width="587" height="248.5" filterUnits="userSpaceOnUse">
      <feOffset dx="5" dy="15" input="SourceAlpha"/>
      <feGaussianBlur stdDeviation="4.5" result="blur"/>
      <feFlood flood-opacity="0.161"/>
      <feComposite operator="in" in2="blur"/>
      <feComposite in="SourceGraphic"/>
    </filter>
    <filter id="START_BUTTON-2" x="-4477.5" y="1655" width="587" height="248.5" filterUnits="userSpaceOnUse">
      <feOffset dx="5" dy="15" input="SourceAlpha"/>
      <feGaussianBlur stdDeviation="4.5" result="blur-2"/>
      <feFlood flood-opacity="0.161"/>
      <feComposite operator="in" in2="blur-2"/>
      <feComposite in="SourceGraphic"/>
    </filter>
    <clipPath id="clip-INTRO">
      <rect width="1920" height="1080"/>
    </clipPath>
  </defs>
  <g id="INTRO" clip-path="url(#clip-INTRO)">
    <rect width="1920" height="1080" fill="#fff"/>
    <g id="green_background" data-name="green background" transform="translate(-92 -93.854)">
      <rect id="Rectangle_1" data-name="Rectangle 1" width="2105" height="1486" transform="translate(0 -0.146)" fill="#008081" stroke="#707070" stroke-width="1"/>
      <rect id="Rectangle_2" data-name="Rectangle 2" width="2105" height="1486" transform="translate(0 -0.146)" fill="#fff" stroke="#707070" stroke-width="1"/>
      <rect id="Rectangle_3" data-name="Rectangle 3" width="2105" height="1486" transform="translate(0 -0.146)" stroke="#707070" stroke-width="1" fill="url(#linear-gradient)"/>
      <rect id="Rectangle_4" data-name="Rectangle 4" width="2105" height="1486" transform="translate(0 -0.146)" fill="rgba(0,0,0,0)" stroke="#707070" stroke-width="1" opacity="0.77" style="mix-blend-mode: soft-light;isolation: isolate"/>
    </g>
    <g id="Group_2" data-name="Group 2">
      <g id="Group_1" data-name="Group 1" transform="translate(-230.383 -27)">
        <g id="outer_border" data-name="outer border" transform="translate(607 77)" fill="none" stroke="#707070" stroke-width="2">
          <rect width="1166.767" height="974.127" stroke="none"/>
          <rect x="1" y="1" width="1164.767" height="972.127" fill="none"/>
        </g>
        <path id="bottom_rectangle" data-name="bottom rectangle" d="M0,0H1166.767V106.567H0Z" transform="translate(607 944.561)" fill="#bfc7c8"/>
        <rect id="upper_rectangle" data-name="upper rectangle" width="1166.767" height="88.805" transform="translate(607 77)" fill="#bfc7c8"/>
        <path id="left_rectangle" data-name="left rectangle" d="M0,0H36.888V778.755H0Z" transform="translate(607 165.805)" fill="#bfc7c8"/>
        <path id="right_rectangle" data-name="right rectangle" d="M0,0H36.888V778.755H0Z" transform="translate(1736.878 165.805)" fill="#bfc7c8"/>
        <path id="upper-inner_shadow" data-name="upper-inner shadow" d="M634,142l80.593,33.124h928.144v4.62l78.82-37.061Z" transform="translate(9.888 23.805)" fill="#616364" stroke="#707070" stroke-width="1"/>
        <path id="left-inner_shadow" data-name="left-inner shadow" d="M634,912.262l74.923-28.839V176.294L634,141.34Z" transform="translate(9.888 23.564)" fill="#919495"/>
        <path id="right-inner_shadow" data-name="right-inner shadow" d="M1455.48,921.116l-80.132-48.574V178.834l80.132-37.818Z" transform="translate(281.398 23.445)" fill="#919495"/>
        <path id="bottom-inner_shadow" data-name="bottom-inner shadow" d="M707.43,685.812,717.9,693.16h929.252l4.041-17.641,80.185,50.7-1098.058.122v-12.56Z" transform="translate(9.64 219.2)" fill="#919495" stroke="#707070" stroke-width="1"/>
        <path id="Path_2" data-name="Path 2" d="M777.793,854V968.222h678.938L1399.566,854Z" transform="translate(62.551 284.566)" fill="#430707"/>
        <path id="Path_1" data-name="Path 1" d="M882.63,856.086c-14.646.738,13.477,65.964,175.324,64s183.148-49.537,177.242-64S897.276,855.348,882.63,856.086Z" transform="translate(97.896 278.25)" fill="#502323"/>
        <rect id="first-base" width="914.013" height="87.439" transform="translate(719.031 1051.127)" fill="#919495"/>
      </g>
      <path id="green_monitor" data-name="green monitor" d="M497.831,886.362l-10.659-8.473V172.964h946.106l-6.027,692.975,6.027,11.95-6.027,8.473Z" transform="translate(0.328 -0.464)" fill="#008081" stroke="#707070" stroke-width="1"/>
      <g transform="matrix(1, 0, 0, 1, 0, 0)" filter="url(#START_BUTTON)">
        <g id="START_BUTTON-3" data-name="START BUTTON" transform="translate(682 422)" fill="#bfc7c8" stroke-linecap="square">
          <path d="M 557 217 L 556 217 L 5.684341886080801e-14 217 L -1 217 L -1 216 L -1 1.4210854715202e-14 L -1 -1 L 5.684341886080801e-14 -1 L 556 -1 L 557 -1 L 557 1.4210854715202e-14 L 557 216 L 557 217 Z" stroke="none"/>
          <path d="M 0 0 L 0 216 L 556 216 L 556 0 L 0 0 M -2 -2 L 558 -2 L 558 218 L -2 218 L -2 -2 Z" stroke="none" fill="gray"/>
        </g>
      </g>
      <g transform="matrix(1, 0, 0, 1, 0, 0)" filter="url(#START_BUTTON-2)">
        <g id="START_BUTTON-4" data-name="START BUTTON" transform="translate(-4467 1657)" fill="#bfc7c8" stroke-linecap="square">
          <path d="M 557 217 L 556 217 L 5.684341886080801e-14 217 L -1 217 L -1 216 L -1 1.4210854715202e-14 L -1 -1 L 5.684341886080801e-14 -1 L 556 -1 L 557 -1 L 557 1.4210854715202e-14 L 557 216 L 557 217 Z" stroke="none"/>
          <path d="M 0 0 L 0 216 L 556 216 L 556 0 L 0 0 M -2 -2 L 558 -2 L 558 218 L -2 218 L -2 -2 Z" stroke="none" fill="gray"/>
        </g>
      </g>
      <text id="The_history_of_the_micro_computer" data-name="The history of the micro computer" transform="translate(720 541)" font-size="35" font-family="TimesNewRomanPSMT, Times New Roman"><tspan x="0" y="0">The history of the micro computer</tspan></text>
      <text id="The_history_of_the_micro_computer-2" data-name="The history of the micro computer" transform="translate(-4429 1776)" font-size="35" font-family="TimesNewRomanPSMT, Times New Roman"><tspan x="0" y="0">The history of the micro computer</tspan></text>
    </g>
  </g>
</svg>
